<svg width="347" height="266" viewBox="0 0 347 266" fill="none" xmlns="http://www.w3.org/2000/svg">
<path d="M56.9409 41.9326L65.578 20.8063L74.2151 0L179.78 0.960289C277.347 1.92058 286.624 2.56077 299.74 8.3225C307.737 11.8436 319.573 21.1264 326.291 29.1288C334.288 38.0915 340.686 50.2551 343.885 61.1384C346.764 72.3418 347.724 83.225 346.444 91.5475C345.164 98.5897 341.646 110.113 338.767 117.155C335.568 124.197 328.21 134.44 322.132 139.562C316.054 145.004 308.697 150.765 305.498 152.366C300.379 155.247 301.339 158.768 335.248 232.39L325.011 249.355C319.253 258.638 313.815 266 312.855 266C311.896 266 298.46 239.112 283.105 205.822C267.75 172.852 254.315 142.763 253.675 138.922C252.715 134.44 254.635 128.999 258.473 125.158C261.992 121.637 269.03 118.756 274.148 118.756C280.226 118.756 286.944 115.235 293.342 109.153C298.78 104.031 304.218 94.7485 305.178 88.9868C306.777 81.9446 305.498 74.9025 301.339 66.2599C297.82 59.2178 290.783 51.5355 284.065 48.0144C276.387 43.8532 266.471 41.9326 231.602 41.9326L152.909 120.356L197.694 165.17C223.925 191.738 242.479 212.544 242.479 216.385C245.537 225.486 244.361 235.357 230.323 238.792L23.3522 240.712L0 200.38L84.4517 199.42C130.836 199.1 168.903 197.819 168.903 196.219C168.903 194.939 154.508 179.574 136.914 161.969C108.444 133.48 104.925 128.679 104.925 118.756C105.245 109.153 109.083 103.391 168.264 41.9326H56.9409Z" fill="url(#paint0_linear_17_238)"/>
<defs>
<linearGradient id="paint0_linear_17_238" x1="270.527" y1="89.1468" x2="-186.527" y2="391.853" gradientUnits="userSpaceOnUse">
<stop stop-color="#5D5D5D"/>
<stop offset="1" stop-color="#9747FF"/>
</linearGradient>
</defs>
</svg>
